<svg xmlns="http://www.w3.org/2000/svg" xmlns:xlink="http://www.w3.org/1999/xlink" width="500" zoomAndPan="magnify" viewBox="0 0 375 374.999991" height="500" preserveAspectRatio="xMidYMid meet" version="1.0"><defs><g/><clipPath id="09f5dea99e"><path d="M 238 190 L 348 190 L 348 210 L 238 210 Z M 238 190 " clip-rule="nonzero"/></clipPath><clipPath id="49aa474717"><path d="M 238.785156 189.757812 L 348.265625 191.9375 L 347.890625 210.683594 L 238.414062 208.503906 Z M 238.785156 189.757812 " clip-rule="nonzero"/></clipPath><clipPath id="958d6633e7"><path d="M 347.992188 210.839844 L 230.265625 208.492188 L 230.671875 188.246094 L 348.398438 190.59375 Z M 347.992188 210.839844 " clip-rule="nonzero"/></clipPath><clipPath id="06ac064767"><path d="M 26 194 L 129 194 L 129 212 L 26 212 Z M 26 194 " clip-rule="nonzero"/></clipPath><clipPath id="3bd192fde2"><path d="M 128.128906 212.652344 L 26.898438 210.660156 L 27.238281 193.414062 L 128.46875 195.40625 Z M 128.128906 212.652344 " clip-rule="nonzero"/></clipPath><clipPath id="785cf1739e"><path d="M 26.964844 193.148438 L 135.691406 195.292969 L 135.324219 214.039062 L 26.59375 211.898438 Z M 26.964844 193.148438 " clip-rule="nonzero"/></clipPath></defs><g clip-path="url(#09f5dea99e)"><g clip-path="url(#49aa474717)"><g clip-path="url(#958d6633e7)"><path fill="#d8c173" d="M 348 190.582031 C 346.5 198.058594 339.742188 203.105469 332.894531 205.5 C 324.625 208.394531 315.613281 208.089844 307.109375 206.460938 C 298.058594 204.730469 289.429688 201.414062 280.691406 198.582031 C 272.449219 195.910156 263.972656 193.621094 255.25 193.546875 C 247.589844 193.484375 239.6875 195.074219 233.230469 199.375 C 232.421875 199.914062 231.644531 200.492188 230.894531 201.105469 C 230.800781 201.179688 230.878906 201.855469 230.875 201.976562 C 230.875 202.097656 230.960938 202.773438 230.859375 202.847656 C 236.910156 197.90625 244.636719 195.699219 252.347656 195.335938 C 260.898438 194.929688 269.28125 196.796875 277.40625 199.285156 C 286.253906 201.996094 294.886719 205.441406 303.914062 207.527344 C 312.363281 209.472656 321.335938 210.3125 329.828125 208.140625 C 336.945312 206.324219 344.378906 202.085938 347.195312 194.90625 C 347.523438 194.058594 347.773438 193.1875 347.945312 192.296875 C 348.054688 191.734375 347.867188 191.113281 347.980469 190.554688 Z M 348 190.582031 " fill-opacity="1" fill-rule="nonzero"/></g></g></g><g clip-path="url(#06ac064767)"><g clip-path="url(#3bd192fde2)"><g clip-path="url(#785cf1739e)"><path fill="#d8c173" d="M 26.96875 211.914062 C 28.359375 204.988281 34.617188 200.3125 40.953125 198.09375 C 48.609375 195.410156 56.957031 195.6875 64.835938 197.195312 C 73.21875 198.796875 81.210938 201.863281 89.300781 204.488281 C 96.9375 206.960938 104.785156 209.078125 112.867188 209.144531 C 119.957031 209.199219 127.277344 207.726562 133.253906 203.742188 C 134.003906 203.242188 134.722656 202.707031 135.417969 202.140625 C 135.503906 202.070312 135.433594 201.445312 135.433594 201.332031 C 135.4375 201.21875 135.355469 200.59375 135.449219 200.527344 C 129.847656 205.101562 122.691406 207.148438 115.550781 207.488281 C 107.632812 207.863281 99.867188 206.136719 92.34375 203.835938 C 84.152344 201.324219 76.15625 198.136719 67.792969 196.207031 C 59.96875 194.40625 51.65625 193.632812 43.796875 195.644531 C 37.203125 197.328125 30.320312 201.253906 27.714844 207.90625 C 27.410156 208.691406 27.179688 209.496094 27.019531 210.324219 C 26.917969 210.84375 27.09375 211.417969 26.988281 211.933594 Z M 26.96875 211.914062 " fill-opacity="1" fill-rule="nonzero"/></g></g></g><g fill="#d8c173" fill-opacity="1"><g transform="translate(193.711895, 210.706936)"><g><path d="M 28.390625 38.234375 C 29 38.234375 29.53125 37.875 29.984375 37.34375 L 30.15625 37.078125 C 30.6875 36.375 31.3125 35.5625 31.75 34.765625 C 36.984375 25.109375 40.1875 13.65625 41.328125 -0.265625 C 42.3125 -12.421875 44.796875 -14.71875 57.296875 -14.71875 C 58.984375 -14.71875 60.671875 -14.8125 62.453125 -14.8125 C 64.125 -14.8125 65.8125 -14.8125 67.59375 -14.8125 C 69.453125 -14.8125 71.3125 -14.8125 73.625 -14.71875 C 73.796875 -14.71875 74.15625 -14.640625 74.515625 -14.640625 C 75.3125 -14.640625 75.390625 -14.8125 75.390625 -15.078125 C 75.125 -15.34375 73.984375 -15.703125 72.640625 -15.875 C 67.234375 -16.328125 61.828125 -16.59375 56.59375 -16.765625 L 55.078125 -16.859375 L 53.40625 -16.9375 C 52.15625 -16.9375 50.921875 -16.9375 49.578125 -17.125 C 49.5 -17.125 49.3125 -17.203125 49.140625 -17.203125 C 48.78125 -17.296875 48.34375 -17.390625 47.8125 -17.390625 C 47.71875 -17.390625 47.640625 -17.390625 47.546875 -17.390625 L 46.921875 -17.734375 L 50.46875 -26.4375 C 56.953125 -42.046875 63.0625 -56.765625 69.8125 -71.40625 C 70.25 -72.203125 70.78125 -73 72.203125 -73.09375 L 75.9375 -73.359375 C 80.8125 -73.71875 85.953125 -74.0625 91.015625 -74.0625 C 93.9375 -74.0625 96.59375 -73.984375 99.171875 -73.71875 L 101.390625 -73.53125 C 107.15625 -73 113.1875 -72.46875 119.21875 -69.71875 C 119.484375 -69.625 119.84375 -69.359375 120.1875 -69.1875 C 120.71875 -68.828125 121.25 -68.484375 121.609375 -68.484375 C 121.703125 -68.484375 121.96875 -68.484375 122.140625 -69.28125 C 122.328125 -69.890625 122.234375 -70.78125 119.84375 -72.03125 C 118.59375 -72.640625 117.265625 -73 116.203125 -73.265625 C 109.28125 -75.046875 102.359375 -76.015625 95.53125 -76.015625 L 92.15625 -76.015625 C 90.65625 -76.015625 89.0625 -76.109375 87.546875 -76.109375 C 83.109375 -76.109375 77.796875 -75.9375 72.375 -74.953125 L 71.671875 -74.78125 C 71.671875 -74.78125 72.296875 -76.46875 72.375 -76.8125 C 72.5625 -77.265625 72.640625 -77.53125 72.734375 -77.875 C 72.828125 -78.6875 73.265625 -79.484375 73.625 -80.1875 C 74.15625 -81.25 74.6875 -82.40625 74.328125 -83.296875 C 74.15625 -83.640625 73.796875 -83.90625 73.265625 -84.265625 C 72.90625 -84.453125 72.640625 -84.453125 72.375 -84.453125 C 70.703125 -84.453125 69.359375 -81.703125 69.1875 -79.03125 C 68.921875 -76.375 67.59375 -75.046875 64.84375 -74.78125 C 57.296875 -74.0625 49.671875 -73.265625 42.21875 -72.375 C 28.921875 -70.875 18.1875 -69.1875 8.515625 -67.234375 L 7.890625 -67.140625 C 6.203125 -66.796875 4.703125 -66.53125 4.796875 -64.671875 C 4.875 -62.71875 6.5625 -61.921875 8.34375 -61.03125 L 9.046875 -60.671875 C 24.65625 -52.78125 33.96875 -40.09375 38.3125 -20.75 C 38.9375 -18.09375 38.140625 -16.765625 35.84375 -16.765625 C 35.5625 -16.765625 35.390625 -16.765625 35.125 -16.765625 C 34.15625 -16.859375 33.265625 -16.9375 32.375 -16.9375 C 29.890625 -16.9375 27.59375 -16.671875 25.28125 -16.40625 C 23.234375 -16.234375 21.203125 -15.96875 19.15625 -15.875 L 18.8125 -15.875 C 17.46875 -15.875 16.59375 -15.796875 16.859375 -14.8125 C 16.9375 -14.453125 17.125 -14.1875 17.390625 -14.015625 C 17.5625 -13.84375 17.921875 -13.75 18.359375 -13.75 C 18.625 -13.75 18.890625 -13.75 19.15625 -13.84375 C 19.421875 -13.84375 19.6875 -13.84375 19.953125 -13.84375 C 22.890625 -13.84375 25.90625 -13.84375 28.921875 -13.84375 L 38.9375 -13.84375 L 39.03125 -13.484375 C 39.65625 -10.5625 39.46875 -7.8125 38.578125 -5.140625 C 35.296875 3.71875 32.28125 12.6875 29.359375 21.375 C 27.859375 26.078125 26.515625 30.34375 26.171875 35.03125 C 26.078125 36.375 26.078125 37.171875 27.234375 37.875 C 27.671875 38.046875 28.03125 38.234375 28.390625 38.234375 Z M 36.015625 12.15625 L 36.71875 12.421875 C 36.375 19.25 34.328125 25.375 30.609375 30.609375 L 29.984375 30.25 Z M 66.53125 -72.46875 L 66.171875 -71.84375 C 60.5 -60.3125 55.53125 -48.609375 50.734375 -37.34375 C 47.8125 -30.515625 44.96875 -23.765625 41.953125 -17.03125 L 41.515625 -16.0625 L 41.25 -17.203125 C 39.390625 -27.140625 36.1875 -35.65625 31.484375 -43.203125 C 26.4375 -51.53125 19.15625 -58.015625 8.6875 -63.6875 L 7.8125 -64.125 L 8.609375 -64.3125 C 30.609375 -68.5625 48.171875 -71.046875 65.8125 -72.375 Z M 66.53125 -72.46875 "/></g></g></g><g fill="#d8c173" fill-opacity="1"><g transform="translate(158.786994, 219.949389)"><g><path d="M 32.875 -18.4375 C 32.640625 -18.78125 32.359375 -18.953125 31.953125 -18.953125 C 31.671875 -18.953125 31.375 -18.890625 31.09375 -18.78125 C 30 -18.5 28.96875 -18.03125 27.953125 -17.46875 C 25.3125 -15.921875 23.1875 -13.796875 21.078125 -11.734375 L 20.4375 -11.171875 C 20.390625 -11.046875 20.328125 -11 20.21875 -10.875 C 19.984375 -10.53125 19.703125 -10.1875 19.359375 -10.1875 C 19.1875 -10.1875 19.015625 -10.3125 18.84375 -10.421875 C 17.578125 -11.515625 16.953125 -12.9375 16.375 -14.3125 C 16.203125 -14.65625 16.09375 -15.0625 15.921875 -15.40625 C 15.296875 -16.671875 15.921875 -17.125 16.546875 -17.578125 C 17.34375 -18.15625 18.203125 -18.78125 19.015625 -19.359375 C 21.125 -20.84375 23.3125 -22.453125 25.375 -24.046875 C 27.3125 -25.59375 29.484375 -27.4375 30.640625 -30.125 C 31.375 -31.953125 31.15625 -33.5625 30 -35.109375 C 28.859375 -36.59375 26.625 -36.828125 25.421875 -36.828125 L 24.734375 -36.765625 C 23.078125 -36.65625 21.359375 -36.1875 19.75 -35.453125 C 13.96875 -32.8125 11.28125 -26.453125 12.71875 -18.890625 C 12.9375 -17.515625 12.71875 -16.71875 11.859375 -15.859375 C 9.5625 -13.6875 7.4375 -11.453125 5.4375 -9.28125 C 4.1875 -7.90625 3.375 -6.359375 3.15625 -4.703125 C 2.984375 -3.78125 3.15625 -3.03125 3.546875 -2.46875 C 4.015625 -1.78125 4.8125 -1.3125 6.015625 -0.921875 C 6.703125 -0.6875 7.328125 -0.578125 8.015625 -0.578125 C 8.421875 -0.578125 8.8125 -0.625 9.21875 -0.6875 C 13.234375 -1.4375 15.984375 -3.671875 18.15625 -5.78125 C 18.609375 -6.234375 19.015625 -6.46875 19.40625 -6.46875 C 19.921875 -6.46875 20.4375 -6.125 21.125 -5.5 C 22.5625 -4.125 24.28125 -2.921875 26.515625 -1.78125 C 26.796875 -1.609375 27.140625 -1.484375 27.375 -1.484375 C 27.546875 -1.484375 27.65625 -1.546875 27.78125 -1.65625 C 28 -2.0625 27.609375 -2.46875 27.09375 -2.859375 C 25.71875 -3.953125 24.28125 -5.09375 22.734375 -6.1875 C 21.8125 -6.8125 21.359375 -7.328125 21.25 -7.78125 C 21.125 -8.359375 21.421875 -8.875 22.109375 -9.5 L 23.1875 -10.484375 C 25.9375 -12.890625 28.6875 -15.40625 32.0625 -17.171875 L 32.296875 -17.296875 C 32.875 -17.578125 33.21875 -17.8125 32.875 -18.4375 Z M 17.75 -31.15625 C 18.890625 -32.53125 20.265625 -33.609375 21.8125 -34.359375 C 22.734375 -34.8125 24.625 -35.625 26.515625 -35.625 C 26.75 -35.625 27.03125 -35.5625 27.3125 -35.5625 C 28.46875 -35.390625 29.09375 -34.8125 29.375 -34.359375 C 30.0625 -33.265625 29.953125 -31.71875 29.4375 -30.6875 C 28.625 -29.203125 27.484375 -27.828125 26 -26.75 C 23.59375 -24.859375 21.1875 -23.078125 18.671875 -21.1875 L 15.40625 -18.71875 L 15.125 -19.015625 C 15.125 -19.125 14.953125 -19.875 14.890625 -20.21875 C 14.828125 -20.5 14.78125 -20.671875 14.78125 -20.78125 C 14.375 -24.5625 15.46875 -28.296875 17.75 -31.15625 Z M 15.125 -5.71875 C 13.28125 -4.015625 11.21875 -2.40625 8.296875 -1.78125 C 7.953125 -1.71875 7.5625 -1.65625 7.21875 -1.65625 C 6.1875 -1.65625 5.328125 -2 4.640625 -2.75 C 3.671875 -3.71875 4.125 -4.640625 4.46875 -5.390625 L 4.640625 -5.671875 C 6.53125 -9.90625 10.078125 -12.65625 13.515625 -15.40625 L 13.6875 -15.515625 L 14.375 -14.140625 C 14.71875 -13.453125 15.0625 -12.765625 15.46875 -12.078125 C 17.6875 -8.25 17.6875 -8.125 15.125 -5.71875 Z M 15.125 -5.71875 "/></g></g></g><g fill="#d8c173" fill-opacity="1"><g transform="translate(93.627565, 210.706936)"><g><path d="M 59.515625 -17.125 L 62.265625 -23.953125 C 64.125 -28.65625 65.8125 -33.09375 67.5 -37.4375 C 67.953125 -38.671875 68.484375 -39.921875 68.921875 -41.15625 C 71.3125 -47.28125 73.71875 -53.484375 74.59375 -60.5 C 75.125 -65.28125 74.328125 -68.75 72.296875 -70.875 C 70.703125 -72.640625 68.03125 -73.53125 64.484375 -73.53125 C 63.421875 -73.53125 62.265625 -73.53125 61.03125 -73.359375 C 60.578125 -73.265625 60.140625 -73.1875 59.78125 -73.09375 C 46.5625 -69.453125 34.5 -63.421875 24.03125 -55.265625 C 20.9375 -52.78125 19.609375 -50.390625 20.21875 -47.8125 C 20.75 -45.234375 23.234375 -42.578125 27.671875 -39.65625 C 28.203125 -39.390625 28.828125 -38.9375 29.453125 -38.40625 C 30.875 -37.34375 32.46875 -36.109375 33.53125 -36.109375 C 33.96875 -36.109375 34.328125 -36.28125 34.59375 -36.71875 C 34.953125 -37.171875 34.953125 -37.609375 34.859375 -38.046875 C 34.421875 -39.203125 32.734375 -40.359375 31.3125 -41.421875 C 30.6875 -41.875 30.15625 -42.21875 29.625 -42.671875 C 26.703125 -45.0625 24.75 -46.75 24.484375 -48.34375 C 24.21875 -49.84375 25.375 -51.09375 27.671875 -53.140625 C 34.953125 -59.4375 43.8125 -64.671875 53.9375 -68.75 C 57.390625 -70.171875 61.203125 -71.40625 65.640625 -71.40625 L 66 -71.40625 C 68.03125 -71.40625 69.453125 -70.96875 70.515625 -69.984375 C 71.5 -69.015625 72.03125 -67.59375 72.109375 -65.546875 C 72.296875 -61.03125 70.96875 -57.21875 69.546875 -53.671875 C 66.875 -47.09375 64.21875 -40.625 61.46875 -34.0625 C 59.171875 -28.5625 56.859375 -22.96875 54.546875 -17.390625 C 53.75 -15.4375 52.15625 -14.640625 50.5625 -14.109375 C 34.328125 -8.609375 21.203125 1.0625 11.625 14.546875 C 7.546875 20.40625 3.71875 27.046875 4.25 36.015625 C 4.4375 39.203125 5.671875 42.046875 7.8125 43.90625 C 9.671875 45.765625 12.234375 46.65625 15.078125 46.65625 C 15.609375 46.65625 16.234375 46.65625 16.765625 46.5625 C 19.953125 46.125 22.796875 44.96875 25.71875 42.84375 C 31.140625 38.765625 35.03125 33.265625 38.40625 27.9375 C 46.03125 15.96875 51.53125 2.75 56.421875 -9.75 Z M 51.09375 -10.5625 C 51.71875 -9.75 50.921875 -7.984375 49.40625 -5.0625 C 49.140625 -4.703125 48.96875 -4.34375 48.875 -4.171875 C 47.90625 -1.78125 46.828125 0.703125 45.765625 3.109375 C 40.71875 14.375 34.328125 27.40625 25.015625 37.96875 C 22.625 40.625 19.875 42.484375 16.671875 43.546875 C 15.609375 43.8125 14.546875 44 13.578125 44 C 11.625 44 9.9375 43.375 8.609375 42.140625 C 7 40.625 6.03125 38.3125 5.9375 35.5625 C 5.765625 31.140625 6.921875 26.875 9.484375 22.4375 C 13.3125 15.875 18 10.03125 23.5 4.96875 C 27.9375 0.96875 33 -2.65625 38.578125 -5.765625 C 41.328125 -7.28125 44.265625 -8.6875 47.28125 -10.03125 C 47.375 -10.03125 47.546875 -10.109375 47.71875 -10.296875 C 48.34375 -10.640625 49.234375 -11.09375 49.9375 -11.09375 C 50.46875 -11.09375 50.828125 -10.828125 51.09375 -10.5625 Z M 51.09375 -10.5625 "/></g></g></g></svg>