<svg width="403" height="442" viewBox="0 0 403 442" fill="none" xmlns="http://www.w3.org/2000/svg">
<path d="M402.24 342.68C401.567 341.306 400.17 340.437 398.64 340.44H371.4V268.44C371.422 246.137 353.383 228.026 331.08 227.96H330.8V169.68C330.778 152.332 316.708 138.28 299.36 138.28H248.48V132.44C258.813 131.524 268.98 129.251 278.72 125.68C279.743 125.301 280.566 124.521 281 123.52C281.422 122.523 281.422 121.397 281 120.4L255.56 58.88C257.72 58.56 259.88 58.2 262 57.76C264.162 57.308 265.549 55.189 265.097 53.026C265.046 52.784 264.974 52.548 264.88 52.32L252.88 23C253.592 21 253.904 18.88 253.8 16.76C253.792 7.50398 246.282 0.00598345 237.026 0.0139834C227.781 0.0219834 220.288 7.51498 220.28 16.76C220.386 18.918 220.901 21.035 221.8 23L209.8 52.32C208.962 54.364 209.94 56.7 211.984 57.538C212.222 57.635 212.468 57.71 212.72 57.76C214.8 58.2 216.96 58.56 219.16 58.88L193.4 120.4C192.978 121.397 192.978 122.523 193.4 123.52C193.834 124.521 194.657 125.301 195.68 125.68C205.382 129.237 215.508 131.509 225.8 132.44V138.28H181V102C190.471 100.446 197.408 92.238 197.36 82.64V61.52C197.481 51.836 190.484 43.527 180.92 42V34.48C180.913 33.142 180.238 31.896 179.12 31.16C177.996 30.404 176.566 30.269 175.32 30.8L159.8 37.44L144.32 30.8C143.019 30.193 141.492 30.331 140.32 31.16C139.202 31.896 138.527 33.142 138.52 34.48V42C129.017 43.518 122.038 51.736 122.08 61.36V82.52C121.988 92.228 129.044 100.528 138.64 102V138.24H104.24C86.8921 138.24 72.8221 152.292 72.8001 169.64V227.96H72.5201C50.2481 228.004 32.2041 246.048 32.1601 268.32V340.32H4.92007C3.39007 340.317 1.99307 341.186 1.32007 342.56C0.736066 343.875 0.904067 345.403 1.76007 346.56L27.8401 380.04C28.5951 380.995 29.7431 381.554 30.9601 381.56H180.64V414.88C180.617 415.146 180.617 415.414 180.64 415.68H164.04C150.915 415.778 139.181 423.881 134.44 436.12C133.975 437.345 134.14 438.719 134.88 439.8C135.617 440.891 136.844 441.549 138.16 441.56H265.44C266.756 441.549 267.983 440.891 268.72 439.8C269.46 438.719 269.625 437.345 269.16 436.12C264.419 423.881 252.685 415.778 239.56 415.68H222.8C222.823 415.414 222.823 415.146 222.8 414.88V381.56H372.48C373.697 381.554 374.845 380.995 375.6 380.04L401.8 346.68C402.656 345.523 402.824 343.995 402.24 342.68ZM255.6 50.8L252.36 51.24L247.88 40.36C247.248 38.869 245.78 37.905 244.16 37.92H241.2V33C243.317 32.46 245.312 31.523 247.08 30.24L255.6 50.8ZM228.44 16.76C228.462 11.938 232.378 8.03998 237.2 8.03998C242.038 8.03998 245.96 11.962 245.96 16.8C245.96 21.638 242.038 25.56 237.2 25.56C232.362 25.56 228.44 21.638 228.44 16.8C228.44 16.787 228.44 16.773 228.44 16.76ZM218.84 50.8L227.32 30.24C229.088 31.523 231.083 32.46 233.2 33V38H230.24C228.62 37.985 227.152 38.948 226.52 40.44L222.04 51.32L218.84 50.8ZM202.4 119.6L232.92 46H241.52L272 119.6C249.359 126.8 225.041 126.8 202.4 119.6ZM240.36 132.88V138.28H233.8V132.88H240.36ZM172.92 40.56V48.92L163.12 44.72L172.92 40.56ZM146.72 40.56L156.52 44.56L146.72 48.76V40.56ZM130.28 82.8V61.52C130.245 56.301 133.699 51.702 138.72 50.28V55C138.727 56.338 139.402 57.584 140.52 58.32C141.692 59.149 143.219 59.287 144.52 58.68L160 52.04L175.52 58.68C176.029 58.886 176.571 58.994 177.12 59C177.904 58.994 178.669 58.757 179.32 58.32C180.438 57.584 181.113 56.338 181.12 55V50.28C186.141 51.702 189.595 56.301 189.56 61.52V82.68C189.631 87.967 186.106 92.628 181 94V69.16C181 66.951 179.209 65.16 177 65.16C174.791 65.16 173 66.951 173 69.16V138.28H163.8V105.52C163.8 103.311 162.009 101.52 159.8 101.52C157.591 101.52 155.8 103.311 155.8 105.52V138.28H146.64L146.72 90.52H161C163.209 90.52 165 88.729 165 86.52C165 84.311 163.209 82.52 161 82.52H146.64V69.16C146.64 66.951 144.849 65.16 142.64 65.16C140.431 65.16 138.64 66.951 138.64 69.16V94C133.656 92.565 130.239 87.986 130.28 82.8ZM80.8801 169.68C80.9021 156.781 91.3411 146.324 104.24 146.28H299.36C312.29 146.28 322.778 156.75 322.8 169.68V179.32C310.395 198.158 285.068 203.373 266.23 190.968C257.736 185.375 251.635 176.814 249.12 166.96C248.541 164.828 246.343 163.57 244.211 164.149C242.842 164.521 241.772 165.591 241.4 166.96C235.887 188.808 213.706 202.051 191.858 196.538C177.31 192.867 165.951 181.508 162.28 166.96C161.701 164.828 159.503 163.57 157.371 164.149C156.002 164.521 154.932 165.591 154.56 166.96C148.981 188.815 126.742 202.009 104.888 196.43C95.0341 193.915 86.4731 187.813 80.8801 179.32V169.68ZM80.8001 191.64C99.9041 210.557 130.726 210.405 149.643 191.301C153.167 187.742 156.121 183.66 158.4 179.2C170.675 203.169 200.056 212.649 224.026 200.374C233.13 195.712 240.538 188.304 245.2 179.2C257.434 203.14 286.759 212.631 310.699 200.397C315.159 198.118 319.241 195.164 322.8 191.64V227.96H80.8001V191.64ZM40.1601 268.32C40.1821 250.457 54.6571 235.982 72.5201 235.96H331.08C348.943 235.982 363.418 250.457 363.44 268.32V282C346.138 307.395 311.525 313.956 286.13 296.654C275.924 289.701 268.322 279.55 264.52 267.8C270.888 265.105 273.865 257.758 271.17 251.39C268.475 245.022 261.128 242.045 254.76 244.74C248.392 247.435 245.415 254.782 248.11 261.15C249.378 264.146 251.763 266.531 254.76 267.8C245.338 297.049 213.989 313.122 184.74 303.7C167.693 298.209 154.332 284.847 148.84 267.8C155.184 265.105 158.142 257.777 155.446 251.434C152.751 245.09 145.423 242.132 139.08 244.828C132.736 247.523 129.778 254.851 132.474 261.194C133.738 264.168 136.106 266.537 139.08 267.8C129.62 297.037 98.2511 313.069 69.0141 303.61C57.2641 299.808 47.1141 292.206 40.1601 282V268.32ZM263.755 256.765C263.551 258.926 261.84 260.636 259.68 260.84C257.195 261.075 254.99 259.25 254.755 256.765C254.52 254.28 256.345 252.075 258.83 251.84C259.113 251.813 259.397 251.813 259.679 251.84C262.165 252.075 263.99 254.279 263.755 256.765ZM148.44 256.32C148.44 258.816 146.416 260.84 143.92 260.84C141.424 260.84 139.4 258.816 139.4 256.32C139.4 253.824 141.424 251.8 143.92 251.8C146.416 251.8 148.44 253.824 148.44 256.32ZM40.1601 294.76C64.4181 320.224 104.727 321.201 130.191 296.943C136.049 291.362 140.79 284.716 144.16 277.36C158.926 309.304 196.791 323.23 228.735 308.465C242.467 302.118 253.493 291.092 259.84 277.36C274.489 309.334 312.284 323.378 344.257 308.729C351.613 305.359 358.259 300.618 363.84 294.76V340.24H40.1601V294.76ZM239.56 423.68C247.159 423.72 254.281 427.392 258.72 433.56H144.88C149.319 427.392 156.441 423.72 164.04 423.68H239.56ZM215.12 415.68H188.48C188.503 415.414 188.503 415.146 188.48 414.88V381.56H214.8V414.88C214.882 415.156 214.989 415.424 215.12 415.68ZM383.72 356.88H302.8C300.591 356.88 298.8 358.671 298.8 360.88C298.8 363.089 300.591 364.88 302.8 364.88H377.44L370.68 373.56H32.9201L26.1601 364.88H230.16C232.369 364.88 234.16 363.089 234.16 360.88C234.16 358.671 232.369 356.88 230.16 356.88H19.8801L13.1201 348.24H390.48L383.72 356.88Z" fill="black"/>
<path d="M159.88 -1.26687e-05C150.624 -0.0220127 143.102 7.46399 143.08 16.72C143.08 16.733 143.08 16.747 143.08 16.76C143.102 25.992 150.568 33.476 159.8 33.52C169.056 33.542 176.578 26.056 176.6 16.8C176.622 7.54399 169.136 0.0219873 159.88 -1.26687e-05ZM159.88 25.56C155.042 25.582 151.102 21.678 151.08 16.84C151.08 16.813 151.08 16.787 151.08 16.76C151.102 11.953 154.993 8.06199 159.8 8.03999C164.638 8.01799 168.578 11.922 168.6 16.76C168.622 21.598 164.718 25.538 159.88 25.56Z" fill="black"/>
<path d="M261.12 112.92C260.744 110.711 258.649 109.224 256.44 109.6C251.439 110.444 246.388 110.965 241.32 111.16C239.111 111.16 237.32 112.951 237.32 115.16C237.32 117.369 239.111 119.16 241.32 119.16L241.48 119.28C246.952 119.088 252.404 118.527 257.8 117.6C260.009 117.224 261.496 115.129 261.12 112.92Z" fill="black"/>
<circle cx="143.5" cy="256.5" r="8.75" fill="#FBF9EA" stroke="#E0C67B" stroke-width="8.5"/>
<circle cx="259.5" cy="256.5" r="8.75" fill="#FBF9EA" stroke="#E0C67B" stroke-width="8.5"/>
</svg>
