<svg width="512" height="512" viewBox="0 0 512 512" fill="none" xmlns="http://www.w3.org/2000/svg">
<path d="M88 418C83.6488 418 79.3953 419.29 75.7775 421.708C72.1596 424.125 69.3398 427.561 67.6747 431.581C66.0095 435.601 65.5739 440.024 66.4227 444.292C67.2716 448.56 69.3669 452.48 72.4437 455.556C75.5204 458.633 79.4404 460.728 83.708 461.577C87.9756 462.426 92.3991 461.99 96.419 460.325C100.439 458.66 103.875 455.84 106.292 452.223C108.71 448.605 110 444.351 110 440C109.996 434.167 107.677 428.573 103.552 424.448C99.4268 420.323 93.8335 418.004 88 418ZM88 450C86.0222 450 84.0888 449.414 82.4443 448.315C80.7998 447.216 79.5181 445.654 78.7612 443.827C78.0043 442 77.8063 439.989 78.1922 438.049C78.578 436.109 79.5304 434.327 80.9289 432.929C82.3275 431.53 84.1093 430.578 86.0491 430.192C87.9889 429.806 89.9996 430.004 91.8268 430.761C93.6541 431.518 95.2159 432.8 96.3147 434.444C97.4135 436.089 98 438.022 98 440C97.9958 442.651 96.9408 445.192 95.0664 447.066C93.192 448.941 90.6509 449.996 88 450Z" fill="#D8C173"/>
<path d="M494 418.2V368C493.999 366.662 493.552 365.362 492.729 364.307C491.906 363.252 490.754 362.502 489.456 362.176L395.056 338.584L324.24 267.76C323.684 267.202 323.023 266.759 322.296 266.457C321.568 266.155 320.788 265.999 320 266H288C287.156 266 286.322 266.179 285.552 266.523C284.782 266.868 284.093 267.371 283.531 268C282.968 268.629 282.545 269.369 282.288 270.173C282.031 270.977 281.947 271.825 282.04 272.664L289.296 338H214V302.8C214.101 298.465 212.827 294.209 210.361 290.642C207.895 287.075 204.364 284.38 200.272 282.944C197.762 282.155 195.12 281.876 192.501 282.124C189.882 282.371 187.339 283.14 185.022 284.385C182.704 285.63 180.659 287.326 179.007 289.372C177.354 291.419 176.128 293.776 175.4 296.304L165.28 331.688C158.591 322.875 153.909 312.707 151.56 301.896C149.211 291.084 149.252 279.89 151.68 269.096C153.801 259.521 153.941 249.614 152.091 239.983C150.24 230.353 146.439 221.203 140.92 213.096L134.912 204.256C141.184 194.656 156.048 167.344 143.712 140.536C142.117 136.755 139.752 133.348 136.766 130.533C133.781 127.717 130.241 125.555 126.373 124.185C122.505 122.815 118.394 122.267 114.302 122.575C110.21 122.883 106.227 124.042 102.608 125.976C97.1108 129.21 92.8956 134.239 90.6719 140.216C84.3457 139.148 77.8449 140.301 72.2719 143.48C68.7885 145.675 65.8012 148.572 63.501 151.987C61.2008 155.401 59.6382 159.258 58.9132 163.311C58.1881 167.364 58.3165 171.524 59.2902 175.524C60.2639 179.524 62.0614 183.278 64.5679 186.544C81.9999 210.88 113.784 211.184 124.64 210.544L130.856 219.696C135.485 226.25 138.706 233.692 140.316 241.552C141.925 249.413 141.888 257.522 140.208 265.368C137.232 277.835 137.02 290.802 139.584 303.36C142.149 315.918 147.43 327.762 155.056 338.064H139.2L124.984 316.736C124.445 315.903 123.707 315.217 122.837 314.739C121.967 314.262 120.992 314.008 120 314H63.9999C63.2121 313.999 62.4319 314.155 61.7042 314.457C60.9765 314.759 60.3158 315.202 59.7599 315.76L19.7599 355.76C19.2016 356.316 18.7586 356.977 18.4566 357.704C18.1545 358.432 17.9993 359.212 17.9999 360V418.2C15.612 418.462 13.3009 419.2 11.2035 420.371C9.10609 421.542 7.26506 423.122 5.78947 425.018C4.31388 426.914 3.23374 429.086 2.61304 431.407C1.99234 433.727 1.8437 436.149 2.17594 438.528C2.93294 442.923 5.24038 446.9 8.67948 449.739C12.1186 452.578 16.4615 454.09 20.9199 454H44.1919C47.1565 463.291 52.9981 471.399 60.8728 477.152C68.7475 482.905 78.2475 486.006 87.9999 486.006C97.7524 486.006 107.252 482.905 115.127 477.152C123.002 471.399 128.843 463.291 131.808 454H380.192C383.156 463.291 388.998 471.399 396.873 477.152C404.748 482.905 414.247 486.006 424 486.006C433.752 486.006 443.252 482.905 451.127 477.152C459.002 471.399 464.843 463.291 467.808 454H491.08C495.538 454.09 499.881 452.578 503.32 449.739C506.76 446.9 509.067 442.923 509.824 438.528C510.156 436.149 510.008 433.727 509.387 431.407C508.766 429.086 507.686 426.914 506.21 425.018C504.735 423.122 502.894 421.542 500.796 420.371C498.699 419.2 496.388 418.462 494 418.2ZM124.32 198.472C115.424 199.04 85.4239 199.088 72.1599 176.072C70.4433 173.124 69.7034 169.709 70.0461 166.315C70.3889 162.922 71.7967 159.723 74.0681 157.179C76.3394 154.634 79.3577 152.873 82.6909 152.148C86.024 151.424 89.501 151.772 92.6239 153.144C93.4816 153.514 94.4139 153.679 95.3465 153.625C96.2792 153.572 97.1864 153.301 97.9959 152.835C98.8055 152.369 99.495 151.72 100.01 150.94C100.524 150.161 100.85 149.272 100.96 148.344C101.23 145.832 102.089 143.418 103.466 141.3C104.844 139.182 106.701 137.418 108.888 136.152C112.617 134.007 117.043 133.428 121.198 134.54C125.353 135.653 128.898 138.367 131.056 142.088C144.264 165 129.232 191.04 124.32 198.472ZM462 367.688L482 372.68V386H472C469.349 385.996 466.808 384.941 464.934 383.066C463.059 381.192 462.004 378.651 462 376V367.688ZM317.512 278L377.512 338H332.328L312.328 278H317.512ZM299.672 278L319.672 338H301.368L294.704 278H299.672ZM186.928 299.6C187.443 297.824 188.581 296.293 190.133 295.287C191.685 294.282 193.547 293.87 195.379 294.127C197.21 294.383 198.888 295.292 200.104 296.685C201.32 298.078 201.993 299.863 202 301.712V338.032H175.952L186.928 299.6ZM29.9999 374H43.9999C45.5912 374 47.1174 374.632 48.2426 375.757C49.3678 376.883 49.9999 378.409 49.9999 380C49.9999 381.591 49.3678 383.117 48.2426 384.243C47.1174 385.368 45.5912 386 43.9999 386H29.9999V374ZM42.1039 442H19.9999C18.4086 442 16.8825 441.368 15.7573 440.243C14.6321 439.117 13.9999 437.591 13.9999 436C13.9999 434.409 14.6321 432.883 15.7573 431.757C16.8825 430.632 18.4086 430 19.9999 430H43.1279C42.3856 433.282 42.0073 436.635 41.9999 440C41.9999 440.672 42.0719 441.336 42.1039 442ZM87.9999 474C81.2754 474 74.7018 472.006 69.1105 468.27C63.5193 464.534 59.1614 459.224 56.588 453.011C54.0147 446.799 53.3413 439.962 54.6532 433.367C55.9651 426.772 59.2033 420.713 63.9583 415.958C68.7133 411.203 74.7715 407.965 81.3669 406.653C87.9622 405.341 94.7985 406.015 101.011 408.588C107.224 411.161 112.534 415.519 116.27 421.111C120.006 426.702 122 433.275 122 440C121.989 449.014 118.404 457.656 112.03 464.03C105.656 470.404 97.0141 473.989 87.9999 474ZM128.384 418C124.435 410.73 118.597 404.661 111.487 400.432C104.377 396.202 96.257 393.97 87.9839 393.97C79.7109 393.97 71.5911 396.202 64.4808 400.432C57.3704 404.661 51.533 410.73 47.5839 418H29.9999V398H43.9999C48.7738 398 53.3522 396.104 56.7279 392.728C60.1035 389.352 61.9999 384.774 61.9999 380C61.9999 375.226 60.1035 370.648 56.7279 367.272C53.3522 363.896 48.7738 362 43.9999 362H30.4879L66.4879 326H116.8L131.016 347.328C131.563 348.149 132.303 348.823 133.173 349.289C134.042 349.755 135.013 349.999 136 350H218V418H128.384ZM378.104 442H133.896C133.896 441.336 134 440.672 134 440C133.993 436.635 133.614 433.282 132.872 430H379.128C378.386 433.282 378.007 436.635 378 440C378 440.672 378.072 441.336 378.104 442ZM424 474C417.275 474 410.702 472.006 405.111 468.27C399.519 464.534 395.161 459.224 392.588 453.011C390.015 446.799 389.341 439.962 390.653 433.367C391.965 426.772 395.203 420.713 399.958 415.958C404.713 411.203 410.772 407.965 417.367 406.653C423.962 405.341 430.798 406.015 437.011 408.588C443.224 411.161 448.534 415.519 452.27 421.111C456.006 426.702 458 433.275 458 440C457.989 449.014 454.404 457.656 448.03 464.03C441.656 470.404 433.014 473.989 424 474ZM464.384 418C460.435 410.73 454.597 404.661 447.487 400.432C440.377 396.202 432.257 393.97 423.984 393.97C415.711 393.97 407.591 396.202 400.481 400.432C393.37 404.661 387.533 410.73 383.584 418H230V350H391.256L450 364.688V376C450.004 381.833 452.323 387.427 456.448 391.552C460.573 395.677 466.166 397.996 472 398H482V418H464.384ZM492 442H469.896C469.896 441.336 470 440.672 470 440C469.993 436.635 469.614 433.282 468.872 430H492C493.591 430 495.117 430.632 496.243 431.757C497.368 432.883 498 434.409 498 436C498 437.591 497.368 439.117 496.243 440.243C495.117 441.368 493.591 442 492 442Z" fill="black"/>
<path d="M424 418C419.649 418 415.395 419.29 411.777 421.708C408.16 424.125 405.34 427.561 403.675 431.581C402.01 435.601 401.574 440.024 402.423 444.292C403.272 448.56 405.367 452.48 408.444 455.556C411.52 458.633 415.44 460.728 419.708 461.577C423.976 462.426 428.399 461.99 432.419 460.325C436.439 458.66 439.875 455.84 442.292 452.223C444.71 448.605 446 444.351 446 440C445.996 434.167 443.677 428.573 439.552 424.448C435.427 420.323 429.833 418.004 424 418ZM424 450C422.022 450 420.089 449.414 418.444 448.315C416.8 447.216 415.518 445.654 414.761 443.827C414.004 442 413.806 439.989 414.192 438.049C414.578 436.109 415.53 434.327 416.929 432.929C418.327 431.53 420.109 430.578 422.049 430.192C423.989 429.806 426 430.004 427.827 430.761C429.654 431.518 431.216 432.8 432.315 434.444C433.414 436.089 434 438.022 434 440C433.996 442.651 432.941 445.192 431.066 447.066C429.192 448.941 426.651 449.996 424 450Z" fill="#D8C173"/>
<path d="M264 362H248C246.409 362 244.883 362.632 243.757 363.757C242.632 364.883 242 366.409 242 368C242 369.591 242.632 371.117 243.757 372.243C244.883 373.368 246.409 374 248 374H264C265.591 374 267.117 373.368 268.243 372.243C269.368 371.117 270 369.591 270 368C270 366.409 269.368 364.883 268.243 363.757C267.117 362.632 265.591 362 264 362Z" fill="#D8C173"/>
<path d="M261.712 213.544C262.437 213.845 263.215 214 264 214C264.785 214 265.563 213.845 266.288 213.544C269.576 212.184 344.224 180.56 349.656 111.808H349.712C350.437 112.109 351.215 112.264 352 112.264C352.785 112.264 353.563 112.109 354.288 111.808C356.072 111.072 398 93.32 398 54.208C397.987 46.7293 395.01 39.5606 389.721 34.2731C384.432 28.9856 377.263 26.0106 369.784 26C363.291 25.9929 357 28.2569 352 32.4C346.995 28.2713 340.704 26.0216 334.216 26.04C326.784 26.0522 319.657 28.9935 314.379 34.2261C309.102 39.4586 306.1 46.5606 306.024 53.992C298.395 53.0186 290.645 53.7982 283.363 56.2713C276.08 58.7445 269.458 62.8461 264 68.264C259.358 63.5519 253.823 59.813 247.718 57.2662C241.614 54.7195 235.062 53.416 228.448 53.432C215.074 53.4447 202.251 58.7627 192.793 68.2191C183.335 77.6754 178.015 90.4976 178 103.872C178 178.144 258.296 212.136 261.712 213.544ZM334.216 38C336.744 38.0025 339.236 38.6016 341.49 39.7484C343.743 40.8952 345.694 42.5574 347.184 44.6C347.768 45.3074 348.501 45.8771 349.331 46.2681C350.161 46.6591 351.067 46.8619 351.984 46.8619C352.901 46.8619 353.807 46.6591 354.637 46.2681C355.467 45.8771 356.2 45.3074 356.784 44.6C358.274 42.5574 360.225 40.8952 362.478 39.7484C364.732 38.6016 367.224 38.0025 369.752 38C374.058 37.9979 378.188 39.7057 381.235 42.7481C384.282 45.7904 385.996 49.9183 386 54.224C386 80.624 359.96 95.68 351.992 99.664C343.992 95.664 318 80.752 318 54.224C318.004 49.9238 319.714 45.8008 322.754 42.7594C325.794 39.7179 329.916 38.0063 334.216 38ZM228.448 65.432C234.437 65.4308 240.342 66.8429 245.683 69.5536C251.024 72.2643 255.649 76.197 259.184 81.032C259.767 81.7407 260.5 82.3115 261.33 82.7034C262.16 83.0952 263.066 83.2985 263.984 83.2985C264.902 83.2985 265.808 83.0952 266.638 82.7034C267.468 82.3115 268.201 81.7407 268.784 81.032C272.319 76.197 276.944 72.2643 282.285 69.5536C287.626 66.8429 293.531 65.4308 299.52 65.432C302.193 65.4649 304.855 65.776 307.464 66.36C312.244 82.7862 323.119 96.7658 337.864 105.44C336.8 164 276.608 195.488 264 201.424C251.272 195.456 190.008 163.616 190.008 103.872C190.021 93.681 194.075 83.911 201.281 76.7048C208.487 69.4987 218.257 65.4447 228.448 65.432Z" fill="black"/>
</svg>
