<svg width="512" height="512" viewBox="0 0 512 512" fill="none" xmlns="http://www.w3.org/2000/svg">
<path d="M256 16C123.664 16 16 123.664 16 256C16 388.336 123.664 496 256 496C388.336 496 496 388.336 496 256C496 123.664 388.336 16 256 16ZM256 480C132.484 480 32 379.516 32 256C32 132.484 132.484 32 256 32C379.516 32 480 132.484 480 256C480 379.516 379.516 480 256 480Z" fill="black"/>
<path d="M122.891 117.766L111.8 106.234C106.948 110.914 102.276 115.859 97.9248 120.945L110.081 131.352C114.1 126.648 118.414 122.078 122.891 117.766Z" fill="#D8C173"/>
<path d="M48.6558 239.367L64.6088 240.633C67.3558 206.307 79.3183 173.359 99.2338 145.266L86.1718 136.016C64.5971 166.464 51.6364 202.169 48.6558 239.367Z" fill="#D8C173"/>
<path d="M368 98.633C368.001 90.1009 364.852 81.8688 359.157 75.5151C353.463 69.1614 345.624 65.1332 337.143 64.2029C328.661 63.2725 320.135 65.5055 313.199 70.4737C306.262 75.4419 301.404 82.7957 299.555 91.125C298.204 97.205 297.119 103.344 296.003 109.475C282.974 105.89 269.516 104.1 256.003 104.155V64H240V160C239.982 168.652 237.177 177.068 232 184C229.672 187.102 226.903 189.847 223.781 192.148C213.867 199.461 208.211 211.68 208.664 224.875L215.992 408.289C216.068 410.328 215.729 412.361 214.996 414.265C214.263 416.17 213.151 417.905 211.727 419.367C208.814 422.236 204.89 423.844 200.801 423.844C196.712 423.844 192.788 422.236 189.875 419.367C188.45 417.902 187.337 416.163 186.603 414.255C185.87 412.347 185.532 410.31 185.609 408.267L191.336 224.829C191.789 211.681 186.136 199.462 176.211 192.149C173.091 189.845 170.325 187.097 168 183.992C162.822 177.063 160.017 168.65 160 160V64H144V153.492C129.256 169.52 118.14 188.538 111.412 209.251C104.683 229.964 102.5 251.884 105.01 273.517C107.52 295.15 114.664 315.987 125.957 334.609C137.25 353.231 152.424 369.199 170.447 381.425L169.625 407.742C169.482 411.928 170.183 416.099 171.687 420.008C173.191 423.917 175.467 427.483 178.378 430.494C181.29 433.504 184.778 435.898 188.635 437.531C192.491 439.165 196.637 440.005 200.825 440.002C205.014 439.999 209.158 439.152 213.012 437.513C216.866 435.873 220.351 433.475 223.258 430.46C226.165 427.445 228.435 423.876 229.933 419.964C231.431 416.053 232.126 411.881 231.977 407.695L231.91 406.022C256.863 410.127 282.449 407.822 306.266 399.322L305.727 406.682C305.441 410.855 305.998 415.043 307.364 418.997C308.73 422.95 310.878 426.588 313.68 429.694C316.482 432.8 319.88 435.31 323.672 437.075C327.464 438.841 331.573 439.824 335.753 439.969C339.934 440.113 344.1 439.414 348.005 437.914C351.91 436.414 355.473 434.144 358.482 431.238C361.491 428.332 363.884 424.851 365.519 421.001C367.154 417.151 367.998 413.011 368 408.828V358.508C393.722 330.567 408 293.978 408 256C408 218.022 393.722 181.433 368 153.492V98.633ZM171.052 362.044C143.646 340.208 125.768 308.601 121.173 273.863C116.577 239.124 125.621 203.956 146.405 175.744C149.723 187.497 156.873 197.804 166.719 205.028C172.391 209.208 175.619 216.411 175.352 224.31L171.052 362.044ZM307.56 381.654C283.489 391.876 256.895 394.605 231.249 389.484L224.649 224.284C224.384 216.409 227.61 209.206 233.274 205.026C237.654 201.801 241.537 197.951 244.8 193.6C252.051 183.897 255.979 172.113 256 160V120.136C268.648 120.082 281.239 121.84 293.389 125.358C289.857 148.872 288.056 172.613 288 196.391V280C288 282.122 288.843 284.157 290.343 285.657C291.843 287.157 293.878 288 296 288H314.422L307.56 381.654ZM352 408.828C351.996 412.851 350.396 416.707 347.552 419.552C344.707 422.396 340.851 423.996 336.828 424C334.751 424 332.695 423.574 330.789 422.747C328.883 421.921 327.167 420.712 325.748 419.195C324.328 417.678 323.236 415.885 322.537 413.929C321.839 411.972 321.55 409.893 321.688 407.82L331.008 280.586C331.089 279.489 330.942 278.387 330.578 277.35C330.213 276.312 329.639 275.361 328.89 274.555C328.142 273.749 327.235 273.106 326.227 272.667C325.219 272.227 324.131 272 323.031 272H304V196.391C304.004 162.152 307.753 128.015 315.18 94.591C316.174 90.1093 318.788 86.1524 322.52 83.4791C326.251 80.8058 330.839 79.6045 335.402 80.1054C339.965 80.6063 344.183 82.7743 347.246 86.1935C350.309 89.6127 352.002 94.0424 352 98.633V408.828ZM392 256C392.013 283.479 383.64 310.307 368 332.9V179.1C383.64 201.693 392.013 228.521 392 256Z" fill="black"/>
<path d="M176 64H192V152H176V64Z" fill="black"/>
<path d="M208 64H224V152H208V64Z" fill="black"/>
</svg>
