<svg width="366" height="43" viewBox="0 0 366 43" fill="none" xmlns="http://www.w3.org/2000/svg">
<line x1="-1.40433e-09" y1="19.5" x2="150" y2="19.5" stroke="#D8C173"/>
<line x1="216" y1="19.5" x2="366" y2="19.5" stroke="#D8C173"/>
<path d="M191.369 19.6609C191.796 19.7903 192.206 19.903 192.587 20C192.206 20.097 191.796 20.2097 191.369 20.3391C189.45 20.9212 187.102 21.8694 185.678 23.3277C184.229 24.811 183.319 27.2514 182.771 29.245C182.669 29.6147 182.579 29.9725 182.5 30.3103C182.421 29.9725 182.331 29.6147 182.229 29.245C181.681 27.2514 180.771 24.811 179.322 23.3277C177.898 21.8694 175.55 20.9212 173.631 20.3391C173.204 20.2097 172.794 20.097 172.413 20C172.794 19.903 173.204 19.7903 173.631 19.6609C175.55 19.0788 177.898 18.1306 179.322 16.6723C180.771 15.189 181.681 12.7486 182.229 10.755C182.331 10.3853 182.421 10.0275 182.5 9.68965C182.579 10.0275 182.669 10.3853 182.771 10.755C183.319 12.7486 184.229 15.189 185.678 16.6723C187.102 18.1306 189.45 19.0788 191.369 19.6609Z" fill="#D8C173" stroke="#D8C173"/>
<path d="M162.975 18.3631C163.73 19.1642 164.937 19.681 165.922 20C164.937 20.319 163.73 20.8358 162.975 21.6369C162.258 22.397 161.794 23.5781 161.5 24.5913C161.206 23.5781 160.742 22.397 160.025 21.6369C159.27 20.8358 158.063 20.319 157.078 20C158.063 19.681 159.27 19.1642 160.025 18.3631C160.742 17.603 161.206 16.4219 161.5 15.4087C161.794 16.4219 162.258 17.603 162.975 18.3631Z" fill="#D8C173" stroke="#D8C173"/>
<path d="M204.975 18.3631C205.73 19.1642 206.937 19.681 207.922 20C206.937 20.319 205.73 20.8358 204.975 21.6369C204.258 22.397 203.794 23.5781 203.5 24.5913C203.206 23.5781 202.742 22.397 202.025 21.6369C201.27 20.8358 200.063 20.319 199.078 20C200.063 19.681 201.27 19.1642 202.025 18.3631C202.742 17.603 203.206 16.4219 203.5 15.4087C203.794 16.4219 204.258 17.603 204.975 18.3631Z" fill="#D8C173" stroke="#D8C173"/>
</svg>
