<svg width="529" height="482" viewBox="0 0 529 482" fill="none" xmlns="http://www.w3.org/2000/svg">
<path d="M239.638 49.164C239.638 42.8979 244.928 38.0779 251.276 37.5959C251.276 37.5959 252.863 37.5959 254.45 37.5959C262.914 37.5959 285.661 38.5599 312.111 45.7899C325.336 49.164 339.619 54.466 352.844 62.178C366.598 69.89 379.294 80.012 389.874 93.508C391.461 95.436 391.99 97.846 391.99 99.774C391.99 103.148 390.403 106.522 387.229 108.45C385.113 109.896 382.468 110.378 380.352 110.378C376.649 110.378 372.946 108.932 370.83 106.04C362.366 95.436 351.786 87.242 340.677 80.494C323.749 70.854 304.705 65.552 288.835 62.66C272.965 59.768 259.74 59.286 254.45 59.286C253.392 59.286 252.863 59.286 252.334 59.286H251.805H251.276C244.928 59.768 239.638 54.948 239.638 49.164Z" fill="#D8C173"/>
<path d="M414.207 84.35C412.091 85.796 409.446 86.76 406.801 86.76C403.098 86.76 399.395 85.314 397.279 82.422C375.59 55.912 345.966 41.934 318.458 34.222C291.479 26.51 266.616 25.546 256.565 25.546C254.978 25.546 253.92 25.546 252.862 25.546H251.804H251.275C244.927 25.546 239.637 21.208 239.108 15.424V14.942C239.108 9.15797 243.869 4.33796 250.217 3.85596C250.217 3.85596 252.333 3.85596 256.565 3.85596C268.203 3.85596 295.182 4.81996 325.864 13.496C356.546 22.172 390.931 38.56 416.852 69.408C418.439 71.336 419.497 73.746 419.497 76.156C418.968 78.566 417.381 81.94 414.207 84.35Z" fill="#D8C173"/>
<path d="M65.5967 236.662C65.5967 228.468 66.1257 223.166 66.6547 222.684C67.7127 217.382 72.4737 213.526 78.2927 213.526C78.8217 213.526 79.3507 213.526 79.8797 213.526C85.6987 214.49 89.9307 218.828 89.9307 224.13C89.9307 224.612 89.9307 224.612 89.9307 225.094V225.576C89.9307 225.576 89.9307 225.576 89.9307 226.058C89.9307 226.058 89.4017 229.914 89.4017 236.662C89.4017 246.784 90.9887 262.69 97.3367 281.006C104.214 299.322 115.852 320.048 137.012 339.328C139.128 341.256 140.715 344.148 140.715 347.04C140.715 349.932 139.657 352.824 137.012 354.752C134.896 356.68 131.722 358.126 128.548 358.126C125.374 358.126 122.2 357.162 120.084 354.752C95.7497 332.58 81.9957 308.962 74.5897 287.754C67.1837 267.028 65.5967 248.712 65.5967 236.662Z" fill="#D8C173"/>
<path d="M137.54 275.704C137.54 266.546 141.243 257.388 148.649 250.64L151.294 248.23C154.997 244.856 159.229 242.446 163.99 240.518L158.171 235.216C149.707 227.504 145.475 217.382 144.946 207.26C144.946 207.26 144.946 207.26 144.946 206.778C144.946 196.656 149.178 186.052 158.171 178.34C161.874 174.966 166.106 172.556 170.867 170.628C165.048 164.362 161.874 156.168 161.874 148.456V147.974V147.492C161.874 138.816 165.577 129.658 172.983 122.91L179.86 116.644C187.266 109.896 197.317 106.522 207.368 106.522C215.832 106.522 223.767 108.932 230.644 113.752C232.76 109.414 235.405 105.558 239.108 102.184C246.514 95.436 256.565 92.062 266.616 92.062C276.667 92.062 286.718 95.436 294.124 102.184L388.286 187.498C386.17 181.232 384.583 175.448 384.583 169.182C384.583 160.988 387.228 152.794 392.518 145.564C397.808 138.334 405.743 133.032 415.265 129.176H415.794L416.852 128.694C418.968 128.212 421.084 127.73 423.729 127.73C431.135 127.73 438.541 131.586 442.244 137.852C443.302 139.298 457.585 162.434 473.984 191.354C482.448 206.296 491.441 222.684 499.376 238.59C507.311 254.496 514.188 269.438 518.42 282.452C518.949 283.416 523.71 297.394 523.71 318.12C523.71 331.134 521.594 347.522 514.717 364.392C507.84 381.262 496.731 399.578 478.216 415.966C462.346 430.426 444.36 440.548 426.374 446.814C408.388 453.08 390.402 455.49 373.474 455.49C355.488 455.49 338.56 452.598 324.806 448.26C311.052 443.922 299.414 438.138 292.008 431.39L149.178 301.25C141.772 293.538 138.069 284.862 137.54 275.704ZM418.439 425.606C433.251 420.304 448.063 412.592 461.817 400.06C477.687 385.6 487.209 370.658 493.028 356.198C498.847 342.22 500.434 328.724 500.434 317.156C500.434 308.48 499.376 300.768 498.318 295.948C497.789 293.538 497.26 291.61 496.731 290.164C496.731 289.682 496.202 289.2 496.202 288.718V288.236C492.499 277.15 486.151 262.69 478.216 247.266C466.578 224.13 452.824 199.548 441.715 180.268C435.896 170.628 431.135 162.916 427.961 157.132C426.374 154.24 424.787 152.312 423.729 150.384C423.729 149.902 423.2 149.902 423.2 149.42C418.439 151.83 415.265 154.24 413.149 157.132C410.504 160.506 409.446 163.88 409.446 168.218C409.446 173.52 411.033 179.786 415.265 187.016L440.657 233.77C441.715 235.216 441.715 237.144 441.715 238.59C441.715 241.964 440.128 245.338 436.425 247.748C434.309 249.194 431.664 249.676 429.548 249.676C426.374 249.676 423.2 248.712 421.084 246.302L278.254 116.162C275.08 113.752 271.906 112.306 267.674 112.306C263.971 112.306 260.268 113.752 257.094 116.162C254.449 118.572 252.862 121.946 252.862 125.802C252.862 129.176 254.449 132.55 257.094 135.442L363.423 233.288C365.539 235.216 367.126 238.108 367.126 241C367.126 243.892 366.068 246.784 363.423 248.712C361.307 250.64 358.133 252.086 354.959 252.086C351.785 252.086 348.611 251.122 346.495 248.712L239.637 151.348L217.948 131.586C214.774 129.176 211.6 127.73 207.368 127.73C203.665 127.73 199.962 129.176 196.788 131.586L189.911 137.852C187.266 140.744 185.679 143.636 185.679 147.492C185.679 150.866 187.266 154.24 189.911 157.132L212.658 177.858L259.21 219.792L318.458 273.776C320.574 275.704 322.161 278.596 322.161 281.488C322.161 284.38 321.103 287.272 318.458 289.2C316.342 291.128 313.168 292.574 309.994 292.574C306.82 292.574 303.646 291.61 301.53 289.2L295.711 283.898L196.259 193.282C193.085 190.872 189.911 189.426 185.679 189.426C181.976 189.426 178.273 190.872 175.099 193.282C170.867 197.138 169.28 201.476 169.28 206.296C169.28 211.116 171.396 215.936 175.099 219.31L206.31 248.23L283.544 318.12L292.008 325.832C294.124 327.76 295.711 330.652 295.711 333.544C295.711 336.436 294.653 339.328 292.008 341.256C289.892 343.184 286.718 344.63 283.544 344.63C280.37 344.63 277.196 343.666 275.08 341.256L269.79 336.436L206.31 278.596L189.911 263.654C186.737 261.244 183.563 259.798 179.331 259.798C175.628 259.798 171.925 261.244 168.751 263.654L166.106 266.064C163.461 268.956 161.874 271.848 161.874 275.704C161.874 279.078 163.461 282.452 166.106 285.344L308.936 415.484C310.523 416.93 313.697 419.34 317.929 421.268C322.161 423.196 326.922 425.606 332.741 427.052C344.379 430.426 358.662 432.836 374.003 432.836C388.286 432.836 403.627 430.908 418.439 425.606Z" fill="black"/>
<path d="M26.4498 219.31C27.5078 214.008 32.2688 210.152 38.0878 210.152C38.6168 210.152 39.1458 210.152 39.6748 210.152C45.4938 211.116 49.7259 215.454 49.7259 220.756C49.7259 220.756 49.7259 221.238 49.7259 221.72V222.684C49.7259 222.684 49.1969 226.54 49.1969 233.288C49.1969 244.374 50.7839 263.172 59.7771 285.826C68.7701 308.48 85.1691 334.508 113.735 361.018C115.851 362.946 117.438 365.838 117.438 368.73C117.438 371.622 116.38 374.514 113.735 376.442C111.619 378.37 108.445 379.816 105.271 379.816C102.097 379.816 98.9231 378.852 96.8071 376.442C65.5961 348.004 47.6098 318.602 37.5588 293.056C27.5078 267.51 25.9209 246.302 25.9209 233.288C25.9209 225.094 26.4498 220.274 26.4498 219.31Z" fill="#D8C173"/>
</svg>
