<svg width="366" height="26" viewBox="0 0 366 26" fill="none" xmlns="http://www.w3.org/2000/svg">
<line x1="-1.40433e-09" y1="12.5" x2="150" y2="12.5" stroke="#D8C173"/>
<line x1="216" y1="12.5" x2="366" y2="12.5" stroke="#D8C173"/>
<mask id="path-3-inside-1_63_103" fill="white">
<path d="M182.5 0C182.5 0 183.33 6.55223 186.036 9.32304C188.694 12.0455 195 13 195 13C195 13 188.694 13.9545 186.036 16.677C183.33 19.4478 182.5 26 182.5 26C182.5 26 181.67 19.4478 178.964 16.677C176.306 13.9545 170 13 170 13C170 13 176.306 12.0455 178.964 9.32304C181.67 6.55223 182.5 0 182.5 0Z"/>
</mask>
<path d="M182.5 0C182.5 0 183.33 6.55223 186.036 9.32304C188.694 12.0455 195 13 195 13C195 13 188.694 13.9545 186.036 16.677C183.33 19.4478 182.5 26 182.5 26C182.5 26 181.67 19.4478 178.964 16.677C176.306 13.9545 170 13 170 13C170 13 176.306 12.0455 178.964 9.32304C181.67 6.55223 182.5 0 182.5 0Z" fill="#D8C173" stroke="#D8C173" stroke-width="2" mask="url(#path-3-inside-1_63_103)"/>
<mask id="path-4-inside-2_63_103" fill="white">
<path d="M161.5 6C161.5 6 161.932 9.52812 163.338 11.0201C164.721 12.486 168 13 168 13C168 13 164.721 13.514 163.338 14.9799C161.932 16.4719 161.5 20 161.5 20C161.5 20 161.068 16.4719 159.662 14.9799C158.279 13.514 155 13 155 13C155 13 158.279 12.486 159.662 11.0201C161.068 9.52812 161.5 6 161.5 6Z"/>
</mask>
<path d="M161.5 6C161.5 6 161.932 9.52812 163.338 11.0201C164.721 12.486 168 13 168 13C168 13 164.721 13.514 163.338 14.9799C161.932 16.4719 161.5 20 161.5 20C161.5 20 161.068 16.4719 159.662 14.9799C158.279 13.514 155 13 155 13C155 13 158.279 12.486 159.662 11.0201C161.068 9.52812 161.5 6 161.5 6Z" fill="#D8C173" stroke="#D8C173" stroke-width="2" mask="url(#path-4-inside-2_63_103)"/>
<mask id="path-5-inside-3_63_103" fill="white">
<path d="M203.5 6C203.5 6 203.932 9.52812 205.338 11.0201C206.721 12.486 210 13 210 13C210 13 206.721 13.514 205.338 14.9799C203.932 16.4719 203.5 20 203.5 20C203.5 20 203.068 16.4719 201.662 14.9799C200.279 13.514 197 13 197 13C197 13 200.279 12.486 201.662 11.0201C203.068 9.52812 203.5 6 203.5 6Z"/>
</mask>
<path d="M203.5 6C203.5 6 203.932 9.52812 205.338 11.0201C206.721 12.486 210 13 210 13C210 13 206.721 13.514 205.338 14.9799C203.932 16.4719 203.5 20 203.5 20C203.5 20 203.068 16.4719 201.662 14.9799C200.279 13.514 197 13 197 13C197 13 200.279 12.486 201.662 11.0201C203.068 9.52812 203.5 6 203.5 6Z" fill="#D8C173" stroke="#D8C173" stroke-width="2" mask="url(#path-5-inside-3_63_103)"/>
</svg>
