<svg xmlns="http://www.w3.org/2000/svg" xmlns:xlink="http://www.w3.org/1999/xlink" zoomAndPan="magnify" preserveAspectRatio="xMidYMid meet" version="1.0" viewBox="21 130.5 333.09 122.91"><defs><g/><clipPath id="5c3682c9f6"><path d="M 243 183 L 354 183 L 354 203 L 243 203 Z M 243 183 " clip-rule="nonzero"/></clipPath><clipPath id="3ba6afcf72"><path d="M 244.324219 183.160156 L 353.800781 185.34375 L 353.425781 204.089844 L 243.949219 201.90625 Z M 244.324219 183.160156 " clip-rule="nonzero"/></clipPath><clipPath id="007631c9bb"><path d="M 353.683594 204.269531 L 235.957031 201.921875 L 236.359375 181.675781 L 354.085938 184.023438 Z M 353.683594 204.269531 " clip-rule="nonzero"/></clipPath><clipPath id="66336cdfa8"><path d="M 21 188 L 122.605469 188 L 122.605469 204.816406 L 21 204.816406 Z M 21 188 " clip-rule="nonzero"/></clipPath></defs><g clip-path="url(#5c3682c9f6)"><g clip-path="url(#3ba6afcf72)"><g clip-path="url(#007631c9bb)"><path fill="#d8c173" d="M 353.679688 183.988281 C 352.175781 191.472656 345.410156 196.523438 338.558594 198.921875 C 330.28125 201.824219 321.257812 201.515625 312.742188 199.886719 C 303.679688 198.152344 295.042969 194.835938 286.296875 191.996094 C 278.042969 189.320312 269.558594 187.03125 260.820312 186.957031 C 253.152344 186.894531 245.242188 188.488281 238.777344 192.792969 C 237.96875 193.332031 237.191406 193.910156 236.4375 194.523438 C 236.347656 194.597656 236.425781 195.273438 236.421875 195.394531 C 236.417969 195.515625 236.507812 196.195312 236.402344 196.265625 C 242.460938 191.320312 250.199219 189.113281 257.917969 188.746094 C 266.476562 188.34375 274.871094 190.210938 283.003906 192.703125 C 291.863281 195.414062 300.503906 198.867188 309.542969 200.953125 C 318 202.902344 326.984375 203.742188 335.488281 201.566406 C 342.613281 199.75 350.054688 195.503906 352.875 188.316406 C 353.203125 187.46875 353.453125 186.597656 353.625 185.703125 C 353.738281 185.140625 353.546875 184.519531 353.660156 183.960938 Z M 353.679688 183.988281 " fill-opacity="1" fill-rule="nonzero"/></g></g></g><g clip-path="url(#66336cdfa8)"><path fill="#d8c173" d="M 21.285156 206.078125 C 22.535156 199.113281 28.714844 194.308594 35.019531 191.960938 C 42.636719 189.121094 51 189.238281 58.921875 190.589844 C 67.347656 192.03125 75.414062 194.945312 83.570312 197.414062 C 91.269531 199.738281 99.171875 201.707031 107.269531 201.613281 C 114.375 201.527344 121.675781 199.90625 127.585938 195.796875 C 128.324219 195.285156 129.035156 194.730469 129.722656 194.148438 C 129.804688 194.078125 129.722656 193.457031 129.722656 193.34375 C 129.722656 193.230469 129.628906 192.601562 129.722656 192.535156 C 124.199219 197.226562 117.070312 199.417969 109.925781 199.898438 C 102.003906 200.433594 94.1875 198.855469 86.609375 196.699219 C 78.351562 194.347656 70.28125 191.3125 61.863281 189.542969 C 53.992188 187.894531 45.652344 187.28125 37.816406 189.453125 C 31.246094 191.269531 24.429688 195.339844 21.949219 202.050781 C 21.660156 202.84375 21.445312 203.65625 21.304688 204.488281 C 21.210938 205.011719 21.398438 205.582031 21.304688 206.101562 Z M 21.285156 206.078125 " fill-opacity="1" fill-rule="nonzero"/></g><g fill="#d8c173" fill-opacity="1"><g transform="translate(78.571587, 214.456706)"><g><path d="M 27.484375 38.953125 C 28.109375 38.96875 28.65625 38.609375 29.109375 38.09375 L 29.296875 37.828125 C 29.84375 37.140625 30.484375 36.359375 30.9375 35.578125 C 36.421875 26.03125 39.890625 14.640625 41.375 0.734375 C 42.65625 -11.421875 45.203125 -13.671875 57.734375 -13.375 C 59.421875 -13.328125 61.109375 -13.375 62.875 -13.328125 C 64.5625 -13.28125 66.25 -13.25 68.03125 -13.203125 C 69.890625 -13.15625 71.765625 -13.109375 74.078125 -12.984375 C 74.25 -12.96875 74.609375 -12.875 74.953125 -12.859375 C 75.765625 -12.84375 75.84375 -13.015625 75.84375 -13.28125 C 75.59375 -13.5625 74.4375 -13.9375 73.109375 -14.15625 C 67.703125 -14.71875 62.296875 -15.125 57.0625 -15.421875 L 55.546875 -15.546875 L 53.859375 -15.6875 C 52.625 -15.71875 51.375 -15.75 50.046875 -15.953125 C 49.953125 -15.953125 49.796875 -16.046875 49.609375 -16.046875 C 49.265625 -16.15625 48.8125 -16.25 48.28125 -16.25 C 48.203125 -16.25 48.109375 -16.265625 48.015625 -16.265625 L 47.390625 -16.640625 L 51.171875 -25.25 C 58.03125 -40.71875 64.5 -55.3125 71.609375 -69.796875 C 72.078125 -70.609375 72.625 -71.390625 74.0625 -71.4375 L 77.78125 -71.609375 C 82.671875 -71.859375 87.828125 -72.09375 92.890625 -71.96875 C 95.8125 -71.890625 98.484375 -71.734375 101.0625 -71.40625 L 103.265625 -71.1875 C 109.015625 -70.515625 115.0625 -69.84375 121.03125 -66.921875 C 121.296875 -66.84375 121.640625 -66.5625 122 -66.375 C 122.515625 -66.015625 123.03125 -65.640625 123.390625 -65.640625 C 123.484375 -65.640625 123.75 -65.625 123.953125 -66.421875 C 124.15625 -67.046875 124.078125 -67.9375 121.703125 -69.21875 C 120.484375 -69.875 119.15625 -70.265625 118.09375 -70.5625 C 111.21875 -72.515625 104.296875 -73.640625 97.46875 -73.8125 L 94.09375 -73.890625 C 92.578125 -73.921875 90.984375 -74.0625 89.46875 -74.09375 C 85.03125 -74.203125 79.71875 -74.140625 74.265625 -73.3125 L 73.546875 -73.140625 C 73.546875 -73.140625 74.21875 -74.8125 74.3125 -75.171875 C 74.5 -75.609375 74.59375 -75.875 74.703125 -76.21875 C 74.796875 -77.03125 75.265625 -77.8125 75.65625 -78.515625 C 76.203125 -79.546875 76.765625 -80.6875 76.421875 -81.59375 C 76.265625 -81.953125 75.90625 -82.21875 75.390625 -82.59375 C 75.03125 -82.78125 74.765625 -82.78125 74.5 -82.796875 C 72.8125 -82.828125 71.421875 -80.109375 71.171875 -77.453125 C 70.84375 -74.8125 69.484375 -73.515625 66.71875 -73.296875 C 59.15625 -72.78125 51.5 -72.15625 44 -71.453125 C 30.640625 -70.25 19.875 -68.828125 10.15625 -67.109375 L 9.515625 -67.046875 C 7.828125 -66.71875 6.296875 -66.5 6.359375 -64.625 C 6.40625 -62.65625 8.0625 -61.828125 9.8125 -60.890625 L 10.515625 -60.53125 C 25.953125 -52.25 34.96875 -39.328125 38.859375 -19.859375 C 39.421875 -17.1875 38.59375 -15.859375 36.28125 -15.921875 C 36.015625 -15.921875 35.828125 -15.921875 35.5625 -15.9375 C 34.59375 -16.046875 33.703125 -16.171875 32.8125 -16.1875 C 30.328125 -16.25 28.015625 -16.046875 25.703125 -15.828125 C 23.65625 -15.6875 21.625 -15.46875 19.5625 -15.4375 L 19.203125 -15.453125 C 17.875 -15.484375 16.984375 -15.40625 17.234375 -14.421875 C 17.3125 -14.078125 17.484375 -13.8125 17.75 -13.609375 C 17.921875 -13.4375 18.265625 -13.328125 18.71875 -13.328125 C 18.984375 -13.3125 19.25 -13.3125 19.515625 -13.390625 C 19.78125 -13.390625 20.046875 -13.390625 20.3125 -13.375 C 23.25 -13.3125 26.265625 -13.234375 29.265625 -13.15625 L 39.3125 -12.921875 L 39.390625 -12.5625 C 39.9375 -9.625 39.703125 -6.859375 38.75 -4.234375 C 35.25 4.578125 32 13.484375 28.875 22.109375 C 27.25 26.78125 25.828125 31 25.359375 35.703125 C 25.234375 37.03125 25.21875 37.828125 26.34375 38.5625 C 26.78125 38.765625 27.125 38.9375 27.484375 38.953125 Z M 35.75 13.03125 L 36.46875 13.328125 C 35.9375 20.15625 33.75 26.234375 29.890625 31.359375 L 29.28125 31 Z M 68.359375 -70.96875 L 67.984375 -70.34375 C 62.015625 -58.9375 56.765625 -47.3125 51.703125 -36.15625 C 48.59375 -29.390625 45.59375 -22.734375 42.40625 -16.046875 L 41.953125 -15.078125 L 41.71875 -16.234375 C 40.078125 -26.21875 37.078125 -34.8125 32.5625 -42.5 C 27.703125 -50.953125 20.578125 -57.609375 10.234375 -63.5625 L 9.359375 -64.015625 L 10.15625 -64.1875 C 32.28125 -67.921875 49.921875 -69.984375 67.625 -70.890625 Z M 68.359375 -70.96875 "/></g></g></g><g fill="#d8c173" fill-opacity="1"><g transform="translate(164.215065, 213.393902)"><g><path d="M 32.921875 -18.46875 C 32.6875 -18.8125 32.40625 -18.984375 32 -18.984375 C 31.71875 -18.984375 31.421875 -18.921875 31.140625 -18.8125 C 30.046875 -18.515625 29.015625 -18.0625 27.984375 -17.484375 C 25.34375 -15.9375 23.21875 -13.8125 21.109375 -11.75 L 20.46875 -11.1875 C 20.421875 -11.0625 20.359375 -11.015625 20.25 -10.890625 C 20.015625 -10.546875 19.71875 -10.203125 19.375 -10.203125 C 19.203125 -10.203125 19.03125 -10.328125 18.859375 -10.4375 C 17.609375 -11.53125 16.96875 -12.953125 16.40625 -14.328125 C 16.234375 -14.6875 16.109375 -15.078125 15.9375 -15.421875 C 15.3125 -16.6875 15.9375 -17.140625 16.578125 -17.609375 C 17.375 -18.171875 18.234375 -18.8125 19.03125 -19.375 C 21.15625 -20.875 23.34375 -22.484375 25.40625 -24.078125 C 27.359375 -25.625 29.53125 -27.46875 30.671875 -30.15625 C 31.421875 -32 31.1875 -33.609375 30.046875 -35.15625 C 28.90625 -36.640625 26.671875 -36.875 25.453125 -36.875 L 24.765625 -36.8125 C 23.109375 -36.703125 21.390625 -36.234375 19.78125 -35.5 C 13.984375 -32.859375 11.296875 -26.5 12.734375 -18.921875 C 12.953125 -17.546875 12.734375 -16.75 11.875 -15.890625 C 9.578125 -13.703125 7.453125 -11.46875 5.453125 -9.296875 C 4.1875 -7.90625 3.390625 -6.359375 3.15625 -4.703125 C 2.984375 -3.78125 3.15625 -3.046875 3.5625 -2.46875 C 4.015625 -1.78125 4.8125 -1.3125 6.015625 -0.921875 C 6.703125 -0.6875 7.34375 -0.578125 8.03125 -0.578125 C 8.421875 -0.578125 8.828125 -0.625 9.234375 -0.6875 C 13.25 -1.4375 16 -3.671875 18.171875 -5.796875 C 18.640625 -6.25 19.03125 -6.484375 19.4375 -6.484375 C 19.953125 -6.484375 20.46875 -6.140625 21.15625 -5.5 C 22.59375 -4.125 24.3125 -2.921875 26.546875 -1.78125 C 26.84375 -1.609375 27.1875 -1.484375 27.40625 -1.484375 C 27.578125 -1.484375 27.703125 -1.546875 27.8125 -1.65625 C 28.046875 -2.0625 27.640625 -2.46875 27.125 -2.859375 C 25.75 -3.953125 24.3125 -5.109375 22.765625 -6.1875 C 21.84375 -6.828125 21.390625 -7.34375 21.28125 -7.796875 C 21.15625 -8.375 21.453125 -8.890625 22.140625 -9.515625 L 23.21875 -10.5 C 25.984375 -12.90625 28.734375 -15.421875 32.109375 -17.203125 L 32.34375 -17.3125 C 32.921875 -17.609375 33.265625 -17.828125 32.921875 -18.46875 Z M 17.78125 -31.1875 C 18.921875 -32.578125 20.296875 -33.65625 21.84375 -34.40625 C 22.765625 -34.859375 24.65625 -35.671875 26.546875 -35.671875 C 26.78125 -35.671875 27.0625 -35.609375 27.359375 -35.609375 C 28.5 -35.4375 29.125 -34.859375 29.421875 -34.40625 C 30.109375 -33.3125 29.984375 -31.765625 29.46875 -30.734375 C 28.671875 -29.25 27.53125 -27.875 26.03125 -26.78125 C 23.625 -24.890625 21.21875 -23.109375 18.6875 -21.21875 L 15.421875 -18.75 L 15.140625 -19.03125 C 15.140625 -19.15625 14.96875 -19.890625 14.90625 -20.25 C 14.859375 -20.53125 14.796875 -20.703125 14.796875 -20.8125 C 14.390625 -24.59375 15.484375 -28.328125 17.78125 -31.1875 Z M 15.140625 -5.734375 C 13.296875 -4.015625 11.234375 -2.40625 8.3125 -1.78125 C 7.96875 -1.71875 7.5625 -1.65625 7.21875 -1.65625 C 6.1875 -1.65625 5.328125 -2 4.640625 -2.75 C 3.671875 -3.734375 4.125 -4.640625 4.46875 -5.390625 L 4.640625 -5.671875 C 6.53125 -9.921875 10.09375 -12.671875 13.53125 -15.421875 L 13.703125 -15.546875 L 14.390625 -14.15625 C 14.734375 -13.46875 15.078125 -12.78125 15.484375 -12.09375 C 17.71875 -8.25 17.71875 -8.140625 15.140625 -5.734375 Z M 15.140625 -5.734375 "/></g></g></g><g fill="#d8c173" fill-opacity="1"><g transform="translate(195.203091, 204.13884)"><g><path d="M 59.609375 -17.140625 L 62.359375 -23.984375 C 64.21875 -28.6875 65.90625 -33.140625 67.59375 -37.484375 C 68.046875 -38.734375 68.578125 -39.96875 69.015625 -41.21875 C 71.421875 -47.34375 73.8125 -53.5625 74.703125 -60.578125 C 75.234375 -65.375 74.4375 -68.84375 72.390625 -70.96875 C 70.796875 -72.75 68.125 -73.640625 64.578125 -73.640625 C 63.515625 -73.640625 62.359375 -73.640625 61.109375 -73.453125 C 60.671875 -73.375 60.21875 -73.28125 59.875 -73.1875 C 46.640625 -69.546875 34.546875 -63.515625 24.078125 -55.34375 C 20.96875 -52.859375 19.625 -50.453125 20.25 -47.875 C 20.78125 -45.296875 23.265625 -42.640625 27.71875 -39.703125 C 28.25 -39.4375 28.875 -39 29.484375 -38.46875 C 30.90625 -37.390625 32.515625 -36.15625 33.578125 -36.15625 C 34.015625 -36.15625 34.375 -36.328125 34.640625 -36.78125 C 35 -37.21875 35 -37.65625 34.90625 -38.109375 C 34.46875 -39.265625 32.78125 -40.421875 31.359375 -41.484375 C 30.734375 -41.921875 30.203125 -42.28125 29.671875 -42.71875 C 26.734375 -45.125 24.78125 -46.8125 24.515625 -48.40625 C 24.25 -49.921875 25.40625 -51.171875 27.71875 -53.203125 C 35 -59.515625 43.875 -64.75 54 -68.84375 C 57.46875 -70.265625 61.296875 -71.5 65.734375 -71.5 L 66.09375 -71.5 C 68.125 -71.5 69.546875 -71.0625 70.625 -70.078125 C 71.59375 -69.109375 72.125 -67.6875 72.21875 -65.640625 C 72.390625 -61.109375 71.0625 -57.296875 69.640625 -53.734375 C 66.96875 -47.171875 64.3125 -40.6875 61.5625 -34.109375 C 59.25 -28.609375 56.9375 -23 54.625 -17.40625 C 53.828125 -15.453125 52.234375 -14.65625 50.625 -14.125 C 34.375 -8.609375 21.234375 1.0625 11.640625 14.5625 C 7.546875 20.4375 3.734375 27.09375 4.265625 36.0625 C 4.4375 39.265625 5.6875 42.109375 7.8125 43.96875 C 9.6875 45.828125 12.265625 46.71875 15.09375 46.71875 C 15.640625 46.71875 16.25 46.71875 16.78125 46.640625 C 19.984375 46.1875 22.828125 45.03125 25.765625 42.90625 C 31.171875 38.8125 35.09375 33.3125 38.46875 27.984375 C 46.109375 15.984375 51.609375 2.75 56.5 -9.765625 Z M 51.171875 -10.578125 C 51.78125 -9.765625 50.984375 -8 49.484375 -5.0625 C 49.203125 -4.703125 49.03125 -4.359375 48.9375 -4.171875 C 47.96875 -1.78125 46.90625 0.703125 45.828125 3.109375 C 40.765625 14.390625 34.375 27.453125 25.046875 38.015625 C 22.65625 40.6875 19.890625 42.546875 16.703125 43.609375 C 15.640625 43.875 14.5625 44.0625 13.59375 44.0625 C 11.640625 44.0625 9.953125 43.4375 8.609375 42.1875 C 7.015625 40.6875 6.046875 38.375 5.953125 35.625 C 5.78125 31.171875 6.921875 26.921875 9.5 22.46875 C 13.328125 15.90625 18.03125 10.03125 23.546875 4.96875 C 27.984375 0.984375 33.046875 -2.671875 38.640625 -5.78125 C 41.390625 -7.28125 44.328125 -8.703125 47.34375 -10.03125 C 47.4375 -10.03125 47.609375 -10.125 47.796875 -10.296875 C 48.40625 -10.65625 49.296875 -11.109375 50.015625 -11.109375 C 50.546875 -11.109375 50.90625 -10.84375 51.171875 -10.578125 Z M 51.171875 -10.578125 "/></g></g></g></svg>