<svg width="498" height="436" viewBox="0 0 498 436" fill="none" xmlns="http://www.w3.org/2000/svg">
<path d="M457 218C457 332.854 363.673 426 248.5 426C133.327 426 40 332.854 40 218C40 103.146 133.327 10 248.5 10C363.673 10 457 103.146 457 218Z" stroke="black" stroke-width="20"/>
<path d="M481.469 142.361C485.648 144.042 485.648 149.958 481.469 151.639L418.277 177.06C416.523 177.766 415.316 179.401 415.16 181.286L409.667 247.562C409.303 251.948 403.859 253.758 400.941 250.464L356.006 199.726C354.791 198.355 352.924 197.757 351.139 198.169L284.139 213.627C279.788 214.631 276.403 209.861 278.787 206.085L314.414 149.67C315.444 148.039 315.444 145.961 314.414 144.33L278.787 87.9146C276.403 84.1388 279.788 79.3689 284.139 80.3728L351.139 95.8307C352.924 96.2425 354.791 95.6451 356.006 94.2737L400.941 43.5365C403.859 40.2415 409.303 42.0522 409.667 46.4385L415.16 112.714C415.316 114.599 416.523 116.234 418.277 116.94L481.469 142.361Z" fill="#FBF9EA" stroke="#D8C173" stroke-width="26"/>
<path d="M16.5309 151.639C12.3523 149.958 12.3523 144.042 16.5309 142.361L79.723 116.94C81.4774 116.234 82.6836 114.599 82.8398 112.714L88.3332 46.4385C88.6968 42.0522 94.141 40.2415 97.0592 43.5365L141.994 94.2737C143.209 95.6451 145.076 96.2425 146.861 95.8307L213.861 80.3728C218.212 79.3689 221.597 84.1388 219.213 87.9146L183.586 144.33C182.556 145.961 182.556 148.039 183.586 149.67L219.213 206.085C221.597 209.861 218.212 214.631 213.861 213.627L146.861 198.169C145.076 197.757 143.209 198.355 141.994 199.726L97.0592 250.464C94.141 253.758 88.6968 251.948 88.3332 247.562L82.8398 181.286C82.6836 179.401 81.4774 177.766 79.723 177.06L16.5309 151.639Z" fill="#FBF9EA" stroke="#D8C173" stroke-width="26"/>
<path d="M364.816 256.429C359.213 251.539 353.799 252.281 323.631 256.385C301.38 259.427 270.906 263.574 247.053 263.574C223.666 263.574 194.299 259.397 172.848 256.356C144.048 252.252 138.852 251.51 133.264 256.4L129 260.271V265.714C129 331.653 182.831 385.296 249.018 385.296C315.205 385.296 369.051 331.654 369.051 265.714L368.905 259.995L364.816 256.429ZM221.935 357.183C231.176 348.68 242.557 344.045 253.646 344.606C270.193 345.712 279.958 350.005 285.619 354.08C274.311 358.741 262 361.458 249.018 361.458C239.558 361.458 230.579 359.726 221.935 357.183ZM307.128 341.505C299.066 332.766 283.916 322.724 255.232 320.825C234.319 319.508 213.305 329.338 198.563 347.159C174.42 332.279 157.32 307.086 153.609 277.778C158.368 278.389 164.116 279.204 169.501 279.961C191.651 283.104 221.979 287.412 247.054 287.412C272.536 287.412 303.927 283.133 326.848 280.019C332.844 279.204 339.247 278.331 344.457 277.705C341.167 303.75 327.109 326.289 307.128 341.505Z" fill="black"/>
</svg>
